<svg width="16" height="16" viewBox="0 0 55 59" fill="none" xmlns="http://www.w3.org/2000/svg">
<path fill-rule="evenodd" clip-rule="evenodd" d="M53.8906 9.8223C53.8994 9.92839 53.9039 10.0346 53.9039 10.1409H53.7208L27.674 59L0.420408 10.1409H0.143967C0.143967 9.99122 0.152751 9.8417 0.170262 9.69245L0 9.38721L0.218696 9.38525C0.431218 8.31225 1.09539 7.25719 2.19008 6.26015C3.54092 5.0298 5.52089 3.91187 8.01692 2.9702C10.513 2.02853 13.4762 1.28156 16.7374 0.77193C19.9986 0.262302 23.494 0 27.0239 0C30.5538 0 34.0492 0.262301 37.3104 0.771929C40.5717 1.28156 43.5349 2.02853 46.0309 2.9702C48.5269 3.91187 50.5069 5.02979 51.8578 6.26015C52.7886 7.10799 53.4082 7.99777 53.7035 8.90487L54.3829 8.89876L53.8906 9.8223Z" fill="#E6DCA7"/>
<path d="M10.3829 10C19.5784 2.62728 36.7088 4.07878 43.3829 10" stroke="#E5E5E5" stroke-width="5"/>
<circle cx="36.8829" cy="18.5" r="4.5" fill="#EBA08F"/>
<circle cx="23.8829" cy="27.5" r="4.5" fill="#EBA08F"/>
<path d="M34.9711 40.5086C34.2827 40.1353 33.5248 39.8963 32.7406 39.8053C31.9563 39.7142 31.1611 39.7728 30.4004 39.9778C29.6397 40.1828 28.9283 40.5301 28.307 40.9999C27.6856 41.4697 27.1663 42.0529 26.7789 42.716C26.3914 43.3792 26.1433 44.1093 26.0488 44.8648C25.9542 45.6204 26.0151 46.3864 26.2278 47.1193C26.4406 47.8521 26.8011 48.5374 27.2888 49.1361C27.7765 49.7347 28.3818 50.2349 29.0702 50.6082L32.0206 45.5584L34.9711 40.5086Z" fill="#EBA08F"/>
<path d="M10.9316 25.6336C11.6369 25.291 12.2653 24.8179 12.7808 24.2413C13.2963 23.6647 13.6889 22.9959 13.9361 22.2732C14.1833 21.5504 14.2804 20.7878 14.2217 20.029C14.163 19.2701 13.9497 18.5298 13.5941 17.8503C13.2384 17.1708 12.7473 16.5655 12.1488 16.0688C11.5503 15.5722 10.8561 15.194 10.1058 14.9558C9.35561 14.7177 8.56404 14.6242 7.77631 14.6807C6.98858 14.7373 6.22012 14.9427 5.51481 15.2854L8.22322 20.4595L10.9316 25.6336Z" fill="#EBA08F"/>
<path d="M22.3829 14L24.981 15.25V17.75L22.3829 19L19.7849 17.75V15.25L22.3829 14Z" fill="#CACF94"/>
<path d="M35.3829 29L37.981 30.25V32.75L35.3829 34L32.7849 32.75V30.25L35.3829 29Z" fill="#CACF94"/>
<path fill-rule="evenodd" clip-rule="evenodd" d="M53.8906 9.8223C53.8994 9.92839 53.9039 10.0346 53.9039 10.1409H53.7208L27.674 59L0.420408 10.1409H0.143967C0.143967 9.99122 0.152751 9.8417 0.170262 9.69245L0 9.38721L0.218696 9.38525C0.431218 8.31225 1.09539 7.25719 2.19008 6.26015C3.54092 5.0298 5.52089 3.91187 8.01692 2.9702C10.513 2.02853 13.4762 1.28156 16.7374 0.77193C19.9986 0.262302 23.494 0 27.0239 0C30.5538 0 34.0492 0.262301 37.3104 0.771929C40.5717 1.28156 43.5349 2.02853 46.0309 2.9702C48.5269 3.91187 50.5069 5.02979 51.8578 6.26015C52.7886 7.10799 53.4082 7.99777 53.7035 8.90487L54.3829 8.89876L53.8906 9.8223Z" fill="#F9D65A"/>
<path d="M10.3829 10C19.5784 2.62728 36.7088 4.07878 43.3829 10" stroke="#FFFEFE" stroke-width="4"/>
<circle cx="36.8829" cy="18.5" r="4.5" fill="#EBA08F"/>
<circle cx="23.8829" cy="27.5" r="4.5" fill="#EBA08F"/>
<path d="M34.9711 40.5086C34.2827 40.1353 33.5248 39.8963 32.7406 39.8053C31.9563 39.7142 31.1611 39.7728 30.4004 39.9778C29.6397 40.1828 28.9283 40.5301 28.307 40.9999C27.6856 41.4697 27.1663 42.0529 26.7789 42.716C26.3914 43.3792 26.1433 44.1093 26.0488 44.8648C25.9542 45.6204 26.0151 46.3864 26.2278 47.1193C26.4406 47.8521 26.8011 48.5374 27.2888 49.1361C27.7765 49.7347 28.3818 50.2349 29.0702 50.6082L32.0206 45.5584L34.9711 40.5086Z" fill="#EBA08F"/>
<path d="M10.9316 25.6336C11.6369 25.291 12.2653 24.8179 12.7808 24.2413C13.2963 23.6647 13.6889 22.9959 13.9361 22.2732C14.1833 21.5504 14.2804 20.7878 14.2217 20.029C14.163 19.2701 13.9497 18.5298 13.5941 17.8503C13.2384 17.1708 12.7473 16.5655 12.1488 16.0688C11.5503 15.5722 10.8561 15.194 10.1058 14.9558C9.35561 14.7177 8.56404 14.6242 7.77631 14.6807C6.98858 14.7373 6.22012 14.9427 5.51481 15.2854L8.22322 20.4595L10.9316 25.6336Z" fill="#EBA08F"/>
<path d="M22.3829 14L24.981 15.25V17.75L22.3829 19L19.7849 17.75V15.25L22.3829 14Z" fill="#CACF94"/>
<path d="M35.3829 29L37.981 30.25V32.75L35.3829 34L32.7849 32.75V30.25L35.3829 29Z" fill="#CACF94"/>
</svg>
